<svg xmlns="http://www.w3.org/2000/svg" width="1200" height="675" viewBox="0 0 1200 675" role="img" aria-label="Crypto Moneyphobia article thumbnail placeholder">
  <defs>
    <linearGradient id="bg" x1="0" x2="1" y1="0" y2="1">
      <stop offset="0%" stop-color="#0B1221"/>
      <stop offset="100%" stop-color="#0F1A35"/>
    </linearGradient>
    <linearGradient id="acc" x1="0" x2="1" y1="1" y2="0">
      <stop offset="0%" stop-color="#00D1A0"/>
      <stop offset="100%" stop-color="#5B8CFF"/>
    </linearGradient>
    <pattern id="mesh" width="60" height="60" patternUnits="userSpaceOnUse">
      <path d="M0 30C15 25 45 35 60 30M0 0C15 -5 45 5 60 0M0 60C15 55 45 65 60 60" fill="none" stroke="#1F2B4D" stroke-width="1"/>
      <path d="M30 0C25 15 35 45 30 60" fill="none" stroke="#1F2B4D" stroke-width="1"/>
    </pattern>
  </defs>
  <rect width="1200" height="675" fill="url(#bg)"/>
  <rect width="1200" height="675" fill="url(#mesh)" opacity="0.5"/>
  <g opacity="0.35">
    <circle cx="1050" cy="120" r="180" fill="url(#acc)"/>
    <circle cx="150" cy="600" r="220" fill="url(#acc)"/>
  </g>
  <rect x="48" y="48" width="1104" height="579" rx="28" fill="none" stroke="#2A3B66" stroke-width="2"/>
  <g transform="translate(80,160)">
    <rect x="0" y="0" width="260" height="260" rx="24" fill="#121C36" stroke="#2A3B66"/>
    <path d="M60 140h140M130 70v140" stroke="url(#acc)" stroke-width="12" stroke-linecap="round"/>
  </g>
  <text x="380" y="240" font-size="54" fill="#EAF2FF" font-weight="700" letter-spacing="0.5">Crypto Moneyphobia</text>
  <text x="380" y="300" font-size="36" fill="#BFD0FF" font-weight="500">News Thumbnail Placeholder 1200×675</text>
  <text x="380" y="360" font-size="24" fill="#98A7D1">Swap with your featured image</text>
</svg>